<?xml version="1.0" standalone="no"?>
<!DOCTYPE svg PUBLIC "-//W3C//DTD SVG 20010904//EN"
 "http://www.w3.org/TR/2001/REC-SVG-20010904/DTD/svg10.dtd">
<svg version="1.0" xmlns="http://www.w3.org/2000/svg"
 width="750.000000pt" height="750.000000pt" viewBox="0 0 750.000000 750.000000"
 preserveAspectRatio="xMidYMid meet">
<metadata>
Created by potrace 1.14, written by Peter Selinger 2001-2017
</metadata>
<g transform="translate(0.000000,750.000000) scale(0.100000,-0.100000)"
fill="#000000" stroke="none">
<path d="M3615 6234 c-259 -26 -476 -97 -617 -201 -95 -69 -165 -183 -194
-311 -15 -67 -23 -84 -67 -132 -103 -114 -142 -247 -134 -455 6 -148 26 -235
87 -377 l39 -91 -24 -46 c-66 -125 -23 -272 95 -324 l47 -22 7 -300 c3 -165 8
-317 12 -337 4 -28 2 -39 -7 -41 -85 -23 -227 -73 -265 -93 -204 -108 -371
-287 -457 -489 -60 -141 -77 -234 -78 -421 -1 -156 4 -174 58 -199 l33 -16 0
-222 c0 -289 18 -358 123 -473 48 -53 168 -124 208 -124 12 0 21 -10 25 -27
10 -39 48 -113 74 -143 l22 -25 -234 -5 c-128 -3 -239 -9 -245 -13 -16 -10
-17 -39 -1 -55 17 -17 3159 -17 3176 0 18 18 14 46 -7 58 -12 6 -95 10 -200
10 l-181 0 35 45 c19 25 42 70 51 100 15 47 21 55 48 61 92 19 211 115 258
208 41 81 48 130 48 371 l0 230 32 15 c65 31 73 55 72 210 -2 146 -16 234 -60
362 -51 152 -183 331 -325 441 -93 72 -251 152 -347 175 l-73 17 8 90 c4 50 8
204 8 342 l0 253 27 5 c46 10 103 60 126 109 37 78 25 203 -24 258 -15 15 -14
21 14 70 16 29 44 96 62 148 30 85 34 109 38 236 3 87 0 168 -7 210 -16 89
-59 192 -109 257 -25 33 -49 83 -66 137 -107 338 -409 509 -923 524 -82 2
-166 2 -188 0z m116 -94 c19 0 29 -5 29 -15 0 -11 -11 -15 -41 -15 -22 0 -38
-4 -35 -9 9 -15 -22 -21 -92 -19 l-67 1 50 7 50 6 -37 8 c-21 5 -35 12 -32 17
3 5 9 7 14 4 4 -3 23 2 41 10 19 8 47 13 63 10 16 -3 41 -5 57 -5z m-200 -27
c13 -16 12 -17 -3 -4 -10 7 -18 15 -18 17 0 8 8 3 21 -13z m-53 0 c-10 -2 -28
-2 -40 0 -13 2 -5 4 17 4 22 1 32 -1 23 -4z m37 -23 c-3 -5 -30 -10 -58 -11
-38 0 -47 -3 -32 -9 25 -11 8 -12 -36 -3 l-34 6 45 12 c57 16 123 18 115 5z
m-195 -20 c-22 -7 -21 -8 13 -9 25 -1 36 -5 31 -12 -3 -6 -6 -28 -6 -50 1 -36
-1 -39 -26 -39 -25 1 -25 2 -9 14 26 20 21 28 -15 24 -32 -3 -32 -4 -29 -50
l3 -48 -41 0 -41 0 0 40 c0 33 3 40 19 40 11 0 22 4 26 9 3 6 -7 6 -27 0 -41
-11 -38 -12 -38 6 0 8 5 15 11 15 6 0 8 7 5 16 -5 13 -4 14 7 6 10 -9 19 -8
35 4 12 8 20 20 17 25 -4 5 -1 9 4 9 6 0 11 -5 11 -11 0 -6 7 -3 16 5 8 9 25
16 37 15 20 -1 20 -2 -3 -9z m193 -7 c-7 -2 -19 -2 -25 0 -7 3 -2 5 12 5 14 0
19 -2 13 -5z m-348 -68 c0 -14 -4 -25 -8 -25 -5 0 -5 -5 -1 -11 3 -6 0 -15 -7
-20 -11 -7 -9 -10 9 -15 20 -6 33 -26 15 -23 -30 5 -33 -4 -33 -80 l0 -80 -45
-7 -45 -6 0 -51 c0 -28 -3 -47 -7 -44 -9 10 -10 117 0 117 4 0 7 10 7 22 0 17
-3 19 -12 10 -6 -6 -11 -28 -11 -49 1 -29 -1 -33 -6 -14 -5 19 -9 12 -19 -36
-9 -42 -19 -65 -38 -80 l-25 -20 24 0 c29 0 45 25 50 77 l3 35 8 -39 c6 -27 5
-45 -4 -59 -10 -17 -10 -19 4 -14 11 5 16 1 16 -13 0 -17 -7 -20 -42 -20 -50
0 -56 4 -86 46 -21 30 -24 79 -9 139 3 11 8 34 13 50 11 46 36 73 59 64 19 -6
19 -8 -5 -17 -14 -6 -19 -11 -12 -11 14 -1 7 -40 -8 -51 -4 -3 -10 -22 -13
-43 -3 -20 -13 -44 -22 -53 -10 -10 -13 -24 -9 -38 8 -27 16 -34 21 -19 2 7
10 10 16 8 22 -8 35 10 51 73 16 62 58 132 79 132 6 0 2 -6 -9 -14 -10 -8 -16
-17 -13 -20 3 -3 15 3 27 15 12 11 27 17 32 14 6 -3 7 1 4 9 -3 9 -10 16 -15
16 -5 0 -3 13 6 30 19 37 19 46 -1 26 -14 -15 -34 -21 -34 -12 0 3 4 16 10 31
9 23 8 25 -10 15 -10 -6 -24 -9 -31 -8 -6 2 -14 -3 -17 -11 -3 -8 0 -11 7 -7
14 9 33 -2 26 -14 -3 -5 -16 -5 -31 0 -21 8 -26 6 -34 -15 -12 -31 -24 -33
-15 -2 8 24 56 80 63 72 3 -2 18 7 34 20 34 29 48 31 48 9 0 -8 -4 -12 -10 -9
-5 3 -10 2 -10 -3 0 -10 41 -24 49 -17 2 3 -2 5 -10 5 -11 0 -11 2 1 10 10 6
11 10 3 10 -27 0 -12 35 17 39 3 1 5 -10 5 -24z m195 -75 c0 -15 -7 -20 -24
-20 -14 0 -28 5 -31 10 -10 16 4 30 31 30 17 0 24 -5 24 -20z m-330 -39 c0 -6
-4 -13 -10 -16 -5 -3 -10 1 -10 9 0 9 5 16 10 16 6 0 10 -4 10 -9z m147 -128
c-4 -17 -4 -17 -12 0 -4 9 -4 25 0 35 8 16 8 16 12 0 3 -10 3 -26 0 -35z m183
-53 c0 -38 1 -40 32 -40 l32 0 -32 -33 c-27 -28 -32 -41 -32 -80 0 -31 -4 -47
-12 -48 -10 0 -10 -2 0 -6 24 -10 11 -23 -23 -23 -32 0 -91 -22 -105 -39 -3
-3 -26 -20 -51 -38 -52 -36 -76 -33 -27 4 25 18 28 23 13 23 -16 0 -14 5 13
33 31 32 32 36 32 120 l0 87 40 0 40 0 0 40 0 40 40 0 40 0 0 -40z m110 36 c0
-2 -7 -9 -15 -16 -12 -10 -15 -10 -15 4 0 9 7 16 15 16 8 0 15 -2 15 -4z m-71
-248 c1 -11 -6 -18 -16 -17 -12 0 -13 2 -5 6 8 3 10 9 4 16 -5 7 -7 30 -4 52
l6 40 7 -40 c4 -22 8 -48 8 -57z m867 -139 c61 -37 208 -201 241 -270 35 -71
68 -198 78 -294 l5 -60 -65 -34 -65 -35 -33 32 c-49 47 -106 64 -237 69 -135
6 -240 -12 -296 -51 -37 -25 -37 -25 -62 -5 -33 26 -94 25 -143 -3 -36 -20
-40 -20 -57 -5 -10 9 -40 26 -67 39 -45 20 -66 23 -195 23 -197 0 -264 -25
-309 -113 l-12 -23 -46 41 c-25 22 -50 40 -56 40 -6 0 -8 33 -4 93 15 208 60
320 177 437 41 41 97 90 124 108 63 41 118 42 219 5 67 -25 85 -27 277 -31
l205 -4 95 30 c147 47 166 48 226 11z m-743 -669 c21 -6 52 -24 70 -40 30 -26
32 -33 35 -108 3 -63 0 -89 -16 -125 -78 -176 -282 -226 -420 -102 -68 61 -95
127 -90 214 7 114 42 153 154 171 70 11 213 5 267 -10z m761 6 c74 -18 107
-42 124 -92 41 -118 -37 -278 -162 -335 -96 -43 -231 -11 -296 71 -53 67 -73
125 -68 195 7 77 24 114 65 138 62 36 232 48 337 23z m-1424 -97 l0 -71 -28 3
c-29 3 -52 -6 -52 -22 0 -5 11 -9 24 -9 50 0 56 -8 56 -77 0 -62 -1 -64 -22
-57 -34 10 -59 35 -79 79 -23 51 -24 100 -1 145 15 31 72 80 93 80 5 0 9 -32
9 -71z m940 61 c22 -12 50 -96 50 -151 0 -105 94 -236 195 -272 108 -38 214
-15 301 65 59 54 91 122 100 211 l7 68 58 30 c33 16 59 27 59 24 0 -3 -13 -49
-28 -102 -42 -143 -88 -245 -154 -344 -59 -89 -205 -244 -240 -255 -12 -3 -31
4 -54 21 -19 14 -64 40 -102 57 -37 17 -68 32 -70 34 -2 1 4 16 13 34 9 17 15
46 13 63 -2 26 -7 32 -27 32 -20 0 -26 -7 -35 -40 -16 -55 -62 -85 -130 -85
-68 0 -109 26 -135 85 -15 34 -25 46 -38 43 -26 -5 -28 -53 -4 -94 24 -40 20
-54 -12 -54 -34 -1 -101 -34 -144 -73 l-39 -35 -60 56 c-157 148 -301 377
-350 557 -22 81 -19 92 16 56 17 -16 39 -32 49 -36 13 -4 22 -19 26 -48 21
-122 88 -220 180 -263 65 -31 170 -33 232 -5 98 45 181 164 187 269 3 49 27
115 54 145 17 19 53 22 82 7z m954 -66 c35 -75 9 -180 -54 -217 -15 -10 -31
-17 -34 -17 -3 0 -6 25 -6 55 0 54 1 55 40 75 22 11 40 25 40 30 0 17 -17 19
-44 4 -16 -7 -30 -14 -32 -14 -2 0 -4 36 -4 81 l0 80 39 -21 c22 -13 45 -37
55 -56z m-1737 -416 c-3 -8 -6 -5 -6 6 -1 11 2 17 5 13 3 -3 4 -12 1 -19z
m948 -231 c28 -14 71 -43 96 -64 26 -21 72 -57 103 -81 55 -42 66 -70 22 -57
-11 3 -55 6 -96 5 -66 -1 -83 3 -145 33 -60 30 -67 35 -47 41 30 10 28 30 -3
24 -13 -3 -22 -2 -20 2 3 4 -2 13 -10 20 -17 14 -9 40 14 41 12 0 12 2 -4 9
-19 8 -18 9 4 9 13 1 22 4 18 7 -3 4 -18 3 -34 0 -21 -6 -24 -9 -12 -17 7 -5
10 -9 4 -9 -15 0 -30 13 -33 29 -2 9 3 11 13 7 9 -3 13 -2 10 4 -3 6 -23 10
-43 11 -33 1 -34 2 -12 9 46 14 123 4 175 -23z m-282 6 c-4 -10 -11 -21 -17
-25 -8 -6 -8 -8 0 -8 31 0 1 -90 -30 -90 -17 0 -18 -2 -6 -10 12 -8 11 -12 -8
-30 -12 -11 -22 -17 -22 -12 0 14 -100 -5 -120 -23 -9 -8 -32 -15 -51 -16 -31
-1 -32 -2 -9 -9 18 -6 12 -7 -27 -6 -41 1 -49 4 -40 14 8 11 5 11 -19 1 -16
-7 -33 -16 -37 -19 -10 -9 205 -22 229 -14 18 5 18 5 0 -7 -26 -16 -222 -7
-260 13 l-28 15 53 30 c30 17 86 59 124 93 90 79 163 114 247 119 22 1 26 -2
21 -16z m-412 -74 c7 -4 6 -8 -3 -12 -9 -3 -18 6 -26 27 -10 28 -10 29 3 12 8
-11 20 -23 26 -27z m551 -66 c5 -12 68 -57 108 -78 26 -13 69 -19 165 -24 130
-7 130 -7 62 -15 -90 -11 -180 0 -236 29 -50 25 -133 94 -114 95 6 0 13 -3 15
-7z m-162 -33 c0 -5 -5 -10 -11 -10 -5 0 -7 5 -4 10 3 6 8 10 11 10 2 0 4 -4
4 -10z m-41 -190 c22 -18 59 -35 92 -42 48 -10 63 -9 127 11 40 12 70 26 67
30 -9 16 23 32 55 29 l32 -3 -32 -43 c-45 -62 -103 -87 -205 -87 -96 0 -158
25 -199 78 -47 61 -3 80 63 27z m-696 -125 c53 -141 186 -309 309 -391 95 -63
238 -121 351 -140 121 -21 328 -14 440 15 253 66 452 238 571 493 20 42 36 82
36 88 0 25 146 -23 284 -93 81 -41 114 -66 185 -137 187 -186 265 -359 278
-612 l6 -128 -186 0 -187 0 0 43 c-1 85 -51 174 -130 232 -90 66 -59 64 -1145
62 -1122 -3 -1033 4 -1134 -96 -66 -65 -90 -111 -98 -187 l-6 -54 -188 0 -189
0 5 98 c7 129 11 151 46 261 63 197 153 324 318 448 89 67 189 119 291 149
113 34 111 35 143 -51z m1867 -671 c54 -25 113 -87 131 -140 11 -31 14 -146
14 -569 0 -525 0 -530 -22 -577 l-22 -48 -100 0 c-82 0 -101 -3 -101 -15 0
-11 19 -15 88 -17 l87 -3 -60 -30 -60 -30 -969 -3 c-1098 -3 -1037 -7 -1119
74 -79 77 -78 70 -75 681 l3 530 30 48 c37 60 94 102 155 114 26 6 453 9 1010
8 951 -3 966 -3 1010 -23z m-2295 -299 l0 -30 -150 -3 c-82 -2 -165 0 -182 3
-29 5 -33 10 -33 36 l0 29 183 -2 182 -3 0 -30z m2885 11 c0 -43 -17 -47 -196
-44 l-169 3 0 25 c0 14 1 28 3 33 2 4 84 7 183 7 l179 0 0 -24z m-2974 -126
l94 0 0 -371 0 -370 -22 6 c-95 29 -192 119 -230 213 -21 53 -23 75 -26 296
l-3 239 47 -7 c26 -3 89 -6 140 -6z m2872 -243 c-3 -238 -3 -243 -30 -299 -45
-96 -122 -165 -216 -193 l-23 -7 2 369 c0 202 2 370 4 373 2 3 62 4 135 2
l131 -3 -3 -242z"/>
<path d="M3117 5883 c-4 -3 -7 -11 -7 -17 0 -6 5 -5 12 2 6 6 9 14 7 17 -3 3
-9 2 -12 -2z"/>
<path d="M3271 5491 c-7 -5 -9 -11 -5 -14 5 -3 15 1 22 9 14 16 5 18 -17 5z"/>
<path d="M3370 5194 c-187 -50 -321 -217 -225 -280 24 -15 30 -15 88 1 41 12
113 20 215 24 152 6 154 6 178 34 68 80 44 191 -49 226 -39 15 -141 13 -207
-5z"/>
<path d="M3933 5194 c-51 -26 -77 -75 -70 -134 7 -57 27 -92 63 -108 14 -7 73
-12 133 -12 60 0 146 -7 192 -16 46 -9 92 -16 103 -16 33 2 56 32 56 74 0 34
-7 46 -52 91 -33 33 -83 67 -132 91 -70 35 -88 39 -170 43 -71 3 -98 0 -123
-13z m67 -74 c0 -5 -5 -10 -12 -10 -6 0 -20 -7 -30 -17 -10 -9 -21 -13 -24
-10 -4 3 9 15 27 26 39 24 39 24 39 11z m135 -6 c27 -9 30 -12 10 -8 -16 4
-55 10 -85 14 l-55 7 45 1 c25 0 63 -6 85 -14z"/>
<path d="M3312 4547 c-12 -13 -22 -36 -22 -53 l0 -29 41 43 c23 23 48 42 55
42 8 0 14 5 14 10 0 20 -66 10 -88 -13z"/>
<path d="M4102 4551 c-31 -28 -43 -71 -21 -71 6 0 31 20 55 45 23 25 39 45 34
45 -5 0 -15 2 -23 5 -7 3 -28 -7 -45 -24z"/>
<path d="M3865 3950 c-3 -5 1 -10 9 -10 9 0 16 5 16 10 0 6 -4 10 -9 10 -6 0
-13 -4 -16 -10z"/>
<path d="M3944 3926 c11 -9 24 -16 30 -16 12 0 7 5 -24 19 -24 11 -24 11 -6
-3z"/>
<path d="M4004 3880 c0 -13 4 -16 10 -10 7 7 7 13 0 20 -6 6 -10 3 -10 -10z"/>
<path d="M4014 3849 c-19 -22 -19 -22 4 -8 12 8 22 17 22 21 0 12 -6 9 -26
-13z"/>
<path d="M4036 3835 c-11 -8 -15 -15 -9 -15 6 0 16 7 23 15 16 19 11 19 -14 0z"/>
<path d="M3921 3805 c3 -2 22 -11 42 -20 42 -17 51 -7 10 13 -26 12 -61 17
-52 7z"/>
<path d="M3595 3930 c-3 -6 1 -7 9 -4 18 7 21 14 7 14 -6 0 -13 -4 -16 -10z"/>
<path d="M3391 3794 c-7 -8 -11 -17 -9 -20 3 -2 13 5 23 16 10 11 14 20 9 20
-5 -1 -15 -8 -23 -16z"/>
<path d="M3421 3783 c-7 -8 -11 -16 -8 -19 2 -2 10 2 17 11 17 20 9 27 -9 8z"/>
<path d="M4883 3304 c-3 -9 3 -21 18 -32 27 -19 119 -101 134 -120 10 -12 45
-7 45 7 0 19 -162 161 -184 161 -4 0 -9 -7 -13 -16z"/>
<path d="M5095 3110 c-10 -17 65 -110 89 -110 30 0 25 19 -20 69 -47 52 -58
59 -69 41z"/>
<path d="M2963 2586 c-58 -19 -104 -49 -153 -102 -67 -73 -85 -122 -85 -234 0
-114 22 -167 97 -243 73 -73 143 -102 248 -102 71 0 94 5 140 26 124 59 200
166 208 294 8 129 -37 227 -141 306 -85 64 -213 86 -314 55z m217 -41 c135
-48 231 -221 200 -358 -37 -169 -182 -270 -352 -247 -100 14 -184 72 -234 162
-26 48 -29 62 -29 148 0 80 4 102 24 140 40 77 93 124 176 157 43 17 165 16
215 -2z"/>
<path d="M3137 2382 c-5 -7 -6 -26 -2 -42 6 -26 4 -30 -14 -30 -11 0 -23 -4
-26 -10 -4 -6 5 -10 19 -10 16 0 26 -6 26 -15 0 -8 -9 -15 -20 -15 -11 0 -20
-5 -20 -11 0 -5 10 -9 23 -7 18 2 23 -3 28 -32 l6 -35 2 36 c1 51 31 63 31 14
0 -19 5 -35 10 -35 6 0 10 18 10 39 0 33 4 40 23 44 19 4 18 4 -5 6 -32 1 -40
31 -8 31 11 0 20 5 20 10 0 6 -9 10 -20 10 -16 0 -20 7 -20 30 0 20 -5 30 -15
30 -9 0 -15 -9 -14 -22 0 -22 1 -22 9 -3 8 18 9 17 9 -7 1 -16 -3 -28 -9 -28
-5 0 -13 0 -17 0 -5 -1 -10 14 -13 32 -3 22 -8 29 -13 20z m53 -97 c0 -8 -9
-15 -20 -15 -11 0 -20 7 -20 15 0 8 9 15 20 15 11 0 20 -7 20 -15z"/>
<path d="M2931 2306 c-94 -52 -47 -206 64 -206 30 0 85 46 85 70 0 32 -18 32
-36 0 -31 -52 -82 -52 -109 0 -21 41 -19 83 5 105 18 16 25 17 54 7 42 -15 46
-15 46 3 0 32 -66 45 -109 21z"/>
<path d="M4222 2225 c-39 -17 -77 -56 -105 -110 -19 -35 -22 -56 -21 -160 1
-106 5 -131 33 -218 43 -132 41 -131 229 -125 185 6 241 25 319 103 58 59 78
112 67 173 -22 122 -121 177 -249 137 -18 -6 -20 -1 -20 53 -1 50 -5 66 -29
97 -16 20 -44 43 -62 51 -42 18 -120 17 -162 -1z m174 -43 c37 -27 56 -86 48
-149 -7 -60 -2 -64 59 -38 78 32 159 8 193 -56 25 -49 16 -135 -21 -183 -36
-47 -101 -85 -174 -102 -59 -14 -278 -19 -297 -6 -36 24 -74 181 -74 309 0 82
4 106 24 149 25 53 63 88 106 97 40 8 112 -3 136 -21z"/>
<path d="M4328 1992 c-9 -9 -30 -43 -48 -75 -25 -44 -36 -57 -49 -51 -38 16
-51 16 -51 1 0 -26 55 -53 78 -38 15 9 102 144 102 158 0 20 -17 23 -32 5z"/>
<path d="M4382 1925 c-25 -31 -20 -49 31 -102 18 -19 27 -38 24 -47 -11 -28
-44 -17 -80 24 -27 32 -36 38 -45 27 -17 -20 20 -74 64 -92 41 -17 80 -11 94
15 17 32 11 52 -31 97 -37 41 -40 47 -26 61 14 14 18 13 43 -2 14 -10 29 -27
31 -37 3 -10 14 -19 24 -19 51 0 -14 87 -72 96 -31 5 -39 2 -57 -21z"/>
<path d="M4620 1435 c0 -8 5 -15 10 -15 6 0 10 7 10 15 0 8 -4 15 -10 15 -5 0
-10 -7 -10 -15z"/>
<path d="M927 2963 c-4 -3 -7 -33 -7 -65 0 -56 2 -61 45 -106 24 -26 45 -44
45 -41 0 3 -19 25 -41 48 l-42 42 6 65 c5 66 5 68 -6 57z"/>
<path d="M1461 2840 c-1 -25 -5 -61 -11 -79 -9 -32 -7 -51 5 -40 10 11 22 125
14 144 -6 15 -8 9 -8 -25z"/>
<path d="M1255 2829 c-4 -12 -2 -26 4 -32 8 -8 11 -2 11 21 0 37 -6 41 -15 11z"/>
<path d="M1250 2771 c0 -7 -5 -9 -12 -5 -7 5 -8 3 -3 -5 5 -9 10 -10 18 -2 6
6 8 14 4 18 -4 3 -7 1 -7 -6z"/>
<path d="M6395 2717 c-40 -39 -55 -61 -55 -80 0 -32 0 -32 -51 -7 -46 24 -135
43 -161 34 -10 -3 -18 -13 -18 -23 0 -14 14 -20 66 -30 71 -13 132 -39 154
-67 14 -15 11 -16 -30 -8 -104 20 -164 -3 -214 -80 -31 -47 -33 -97 -10 -175
14 -49 44 -111 66 -138 16 -20 -5 -23 -161 -22 -189 1 -191 0 -191 -106 0 -87
8 -93 120 -97 l75 -3 3 -127 3 -128 -78 0 c-122 0 -123 -2 -123 -166 l0 -134
-184 0 c-154 0 -187 -3 -200 -16 -19 -19 -20 -36 -4 -52 9 -9 239 -12 975 -12
l963 0 6 27 c12 47 -10 53 -203 53 l-173 0 0 123 0 124 76 -1 c71 -1 78 1 100
27 22 26 24 36 24 141 0 173 -15 196 -129 196 l-58 0 -7 61 c-4 42 -12 66 -23
75 -26 18 -93 25 -223 23 -63 -1 -118 -1 -123 0 -4 0 6 25 23 55 42 73 64 184
49 236 -18 61 -61 98 -130 112 -62 13 -71 20 -42 37 15 8 17 22 15 88 -4 104
-7 113 -43 113 -22 0 -43 -13 -84 -53z m85 -56 c0 -67 -1 -70 -36 -100 -20
-18 -41 -30 -47 -28 -7 2 -13 26 -15 54 -3 47 0 54 39 97 23 25 46 46 51 46 4
0 8 -31 8 -69z m-164 -211 l57 -31 37 26 c40 28 95 33 150 14 67 -24 74 -123
17 -232 -28 -54 -33 -58 -85 -73 -64 -19 -232 -16 -271 5 -30 16 -80 124 -87
187 -4 39 -1 56 15 82 38 59 84 65 167 22z m-333 -390 c4 0 7 -17 7 -39 l0
-38 -72 -6 c-40 -3 -74 -4 -76 -2 -2 2 0 23 3 48 l7 45 61 -4 c34 -2 65 -4 70
-4z m755 -37 l3 -43 -360 0 -361 0 0 40 0 39 73 3 c39 2 200 3 357 3 l285 0 3
-42z m126 37 l52 0 -4 -40 -4 -40 -69 0 -69 0 0 38 c0 43 7 55 28 47 7 -3 37
-5 66 -5z m-594 -275 l0 -125 -115 0 -115 0 0 118 c0 65 3 122 7 125 3 4 55 7
115 7 l108 0 0 -125z m588 -2 l3 -123 -286 0 -285 0 0 125 0 125 283 -2 282
-3 3 -122z m252 2 l0 -125 -114 0 -115 0 -3 118 c-2 64 -2 120 0 125 2 4 55 7
118 7 l114 0 0 -125z m-1150 -305 l0 -120 -55 0 -55 0 0 120 0 120 55 0 55 0
0 -120z m190 4 c3 -60 4 -112 2 -116 -2 -5 -41 -8 -88 -8 l-84 0 0 121 0 121
83 -5 82 -5 5 -108z m628 -6 l3 -118 -71 0 -70 0 0 120 0 121 68 -3 67 -3 3
-117z m-168 2 l0 -110 -147 -2 c-82 -1 -177 -2 -213 -3 l-65 0 -3 113 -3 112
216 0 215 0 0 -110z m297 -7 l2 -113 -52 0 -52 0 0 115 0 116 50 -3 50 -3 2
-112z"/>
<path d="M1396 2648 l-17 -33 20 24 c18 20 27 41 18 41 -1 0 -11 -15 -21 -32z"/>
<path d="M1320 2570 c-13 -8 -12 -10 3 -10 9 0 17 5 17 10 0 12 -1 12 -20 0z"/>
<path d="M980 2270 c0 -5 5 -10 10 -10 6 0 10 5 10 10 0 6 -4 10 -10 10 -5 0
-10 -4 -10 -10z"/>
<path d="M725 2170 c-11 -4 -30 -18 -42 -29 -23 -22 -23 -24 -23 -314 0 -169
4 -308 10 -329 6 -20 26 -60 45 -87 l34 -51 -157 0 c-86 0 -167 -3 -179 -6
-27 -7 -36 -29 -23 -55 10 -18 30 -19 745 -19 403 0 740 3 749 6 26 10 21 60
-6 68 -13 3 -125 6 -250 6 -126 0 -228 2 -228 4 0 2 15 27 34 55 19 28 37 64
41 81 5 25 12 30 35 30 42 0 111 56 140 115 30 60 33 152 7 202 -24 46 -86
102 -128 114 l-37 12 -4 74 c-3 70 -6 77 -36 104 l-32 29 -338 -1 c-185 0
-346 -4 -357 -9z m683 -122 l3 -48 -46 0 c-39 0 -46 -3 -43 -17 2 -14 11 -17
40 -15 l36 3 7 -157 c13 -264 -3 -338 -85 -408 -49 -41 -91 -48 -260 -44 -168
3 -202 12 -256 66 -56 57 -59 69 -62 316 l-3 229 230 -5 c222 -6 231 -5 231
13 0 18 -11 19 -232 19 l-233 0 1 38 c1 20 2 43 3 50 1 10 71 12 334 10 l332
-3 3 -47z m161 -194 c54 -69 48 -164 -13 -222 -65 -61 -66 -60 -66 119 l0 160
29 -16 c16 -8 39 -27 50 -41z"/>
<path d="M1250 1985 c0 -8 7 -15 15 -15 8 0 15 7 15 15 0 8 -7 15 -15 15 -8 0
-15 -7 -15 -15z"/>
<path d="M30 1350 c0 -5 -7 -10 -15 -10 -19 0 -19 -27 -1 -46 11 -11 46 -14
150 -14 l136 0 6 25 c12 48 -6 55 -147 55 -79 0 -129 -4 -129 -10z"/>
<path d="M1985 1346 c-17 -12 -18 -18 -7 -40 12 -28 40 -34 60 -14 17 17 15
39 -5 54 -23 17 -25 17 -48 0z"/>
<path d="M7435 1347 c-23 -17 -14 -67 13 -67 22 1 52 24 52 40 0 12 -28 39
-41 40 -3 0 -13 -6 -24 -13z"/>
</g>
</svg>
